<mxfile host="app.diagrams.net" modified="2023-12-27T06:08:19.146Z" agent="Mozilla/5.0 (Windows NT 10.0; Win64; x64) AppleWebKit/537.36 (KHTML, like Gecko) Chrome/120.0.0.0 Safari/537.36" etag="075FEOb4Y3a23uyU7b3F" version="22.1.12" type="google">
  <diagram name="第 1 页" id="QBQ5EZMorRzOxc8YqjkE">
    <mxGraphModel grid="1" page="1" gridSize="10" guides="1" tooltips="1" connect="1" arrows="1" fold="1" pageScale="1" pageWidth="827" pageHeight="1169" math="0" shadow="0">
      <root>
        <mxCell id="0" />
        <mxCell id="1" parent="0" />
        <mxCell id="Qh55SzgOEn8RBj2z0dld-3" value="管理員" style="shape=umlActor;verticalLabelPosition=bottom;verticalAlign=top;html=1;outlineConnect=0;fillColor=#B9E0A5;" vertex="1" parent="1">
          <mxGeometry x="60" y="130" width="30" height="60" as="geometry" />
        </mxCell>
        <mxCell id="Qh55SzgOEn8RBj2z0dld-4" value="" style="html=1;points=[[0,0,0,0,5],[0,1,0,0,-5],[1,0,0,0,5],[1,1,0,0,-5]];perimeter=orthogonalPerimeter;outlineConnect=0;targetShapes=umlLifeline;portConstraint=eastwest;newEdgeStyle={&quot;curved&quot;:0,&quot;rounded&quot;:0};fillColor=#B9E0A5;" vertex="1" parent="1">
          <mxGeometry x="70" y="220" width="10" height="260" as="geometry" />
        </mxCell>
        <mxCell id="Qh55SzgOEn8RBj2z0dld-8" value=": CarCatelog" style="shape=umlLifeline;perimeter=lifelinePerimeter;whiteSpace=wrap;html=1;container=1;dropTarget=0;collapsible=0;recursiveResize=0;outlineConnect=0;portConstraint=eastwest;newEdgeStyle={&quot;curved&quot;:0,&quot;rounded&quot;:0};fillColor=#B9E0A5;" vertex="1" parent="1">
          <mxGeometry x="160" y="130" width="100" height="410" as="geometry" />
        </mxCell>
        <mxCell id="Qh55SzgOEn8RBj2z0dld-9" value="" style="html=1;points=[[0,0,0,0,5],[0,1,0,0,-5],[1,0,0,0,5],[1,1,0,0,-5]];perimeter=orthogonalPerimeter;outlineConnect=0;targetShapes=umlLifeline;portConstraint=eastwest;newEdgeStyle={&quot;curved&quot;:0,&quot;rounded&quot;:0};fillColor=#B9E0A5;" vertex="1" parent="Qh55SzgOEn8RBj2z0dld-8">
          <mxGeometry x="45" y="120" width="10" height="50" as="geometry" />
        </mxCell>
        <mxCell id="Qh55SzgOEn8RBj2z0dld-10" value="addCar()" style="html=1;verticalAlign=bottom;startArrow=none;endArrow=block;startSize=8;curved=0;rounded=0;entryX=0;entryY=0;entryDx=0;entryDy=5;startFill=0;" edge="1" parent="Qh55SzgOEn8RBj2z0dld-8" target="Qh55SzgOEn8RBj2z0dld-9">
          <mxGeometry relative="1" as="geometry">
            <mxPoint x="-80" y="125" as="sourcePoint" />
          </mxGeometry>
        </mxCell>
        <mxCell id="Qh55SzgOEn8RBj2z0dld-13" value="&amp;lt;&amp;lt;creat&amp;gt;&amp;gt;" style="html=1;verticalAlign=bottom;startArrow=none;endArrow=block;startSize=8;curved=0;rounded=0;startFill=0;" edge="1" parent="1">
          <mxGeometry relative="1" as="geometry">
            <mxPoint x="215" y="284" as="sourcePoint" />
            <mxPoint x="370" y="284" as="targetPoint" />
          </mxGeometry>
        </mxCell>
        <mxCell id="Qh55SzgOEn8RBj2z0dld-6" value=":Car" style="html=1;points=[[0,0,0,0,5],[0,1,0,0,-5],[1,0,0,0,5],[1,1,0,0,-5]];perimeter=orthogonalPerimeter;outlineConnect=0;targetShapes=umlLifeline;portConstraint=eastwest;newEdgeStyle={&quot;curved&quot;:0,&quot;rounded&quot;:0};fillColor=#B9E0A5;" vertex="1" parent="1">
          <mxGeometry x="370" y="270" width="76" height="30" as="geometry" />
        </mxCell>
      </root>
    </mxGraphModel>
  </diagram>
</mxfile>
